<svg xmlns="http://www.w3.org/2000/svg" viewBox="0 0 512 512" role="img" aria-label="JS Globe"><defs><radialGradient id="bg" cx=".5" cy=".28" r=".9"><stop offset="0" stop-color="#ffffff"/><stop offset=".6" stop-color="#f3eef0"/><stop offset="1" stop-color="#ddd2d7"/></radialGradient><linearGradient id="scale" x1="0" y1="0" x2="0" y2="1"><stop offset="0" stop-color="#ff6273"/><stop offset=".22" stop-color="#e8243f"/><stop offset=".72" stop-color="#b3122f"/><stop offset="1" stop-color="#6e0719"/></linearGradient><linearGradient id="sheen" x1="0" y1="0" x2="0" y2="1"><stop offset="0" stop-color="#fff" stop-opacity=".7"/><stop offset=".6" stop-color="#fff" stop-opacity=".08"/><stop offset="1" stop-color="#fff" stop-opacity="0"/></linearGradient><linearGradient id="liner" x1="0" y1="0" x2="0" y2="1"><stop offset="0" stop-color="#f4f6f9"/><stop offset=".5" stop-color="#aeb5c1"/><stop offset="1" stop-color="#6f7784"/></linearGradient><linearGradient id="blade" x1="0" y1="0" x2="0" y2="1"><stop offset="0" stop-color="#8e96a4"/><stop offset=".1" stop-color="#dfe4ea"/><stop offset=".5" stop-color="#c3cad4"/><stop offset=".62" stop-color="#f6f8fb"/><stop offset=".86" stop-color="#d7dde5"/><stop offset="1" stop-color="#9aa2af"/></linearGradient><linearGradient id="bar" x1="0" y1="0" x2="0" y2="1"><stop offset="0" stop-color="#9aa2af"/><stop offset=".3" stop-color="#f3f5f8"/><stop offset=".7" stop-color="#c2c9d3"/><stop offset="1" stop-color="#858d9b"/></linearGradient><radialGradient id="pin" cx=".4" cy=".35" r=".7"><stop offset="0" stop-color="#ffffff"/><stop offset="1" stop-color="#9aa2af"/></radialGradient><filter id="far" x="-30%" y="-30%" width="160%" height="160%"><feGaussianBlur stdDeviation="7"/></filter><filter id="near" x="-30%" y="-30%" width="160%" height="160%"><feGaussianBlur stdDeviation="4"/></filter></defs><rect width="512" height="512" fill="url(#bg)"/><g transform="translate(256 256) scale(0.78) translate(-256 -256)"><g transform="translate(242 326) scale(.92) rotate(-12)"><g opacity=".13" filter="url(#far)" transform="rotate(12) translate(2 12) rotate(-12)"><g transform="translate(122 -26) rotate(-24) scale(1.18)"><path d="M-20-11H104V-15C104-19 108-21 112-19L128-10C132-8 132-3 128-1L122 3V11H-20Z" fill="#000"/></g><g transform="translate(-126 -26) rotate(-42) scale(1.18)"><path d="M-20-19H150C196-19 232-9 262 12 226 21 190 24 150 24H-20Z" fill="#000"/></g><g fill="#000"><rect x="-172" y="-48" width="344" height="96" rx="48"/></g></g><g transform="translate(122 -26) rotate(-24) scale(1.18)"><path d="M-20-11H104V-15C104-19 108-21 112-19L128-10C132-8 132-3 128-1L122 3V11H-20Z" fill="url(#bar)"/></g><g transform="translate(-126 -26) rotate(-42) scale(1.18)"><path d="M-20-19H150C196-19 232-9 262 12 226 21 190 24 150 24H-20Z" fill="url(#blade)"/></g><g transform="translate(-126 -26) rotate(-42) scale(1.18)"><path d="M-10 9H150C186 9 222 7 250 9" fill="none" stroke="#fff" stroke-width="2.2" stroke-linecap="round" opacity=".9"/><path d="M-10 6H150C186 6 220 3 246 5" fill="none" stroke="#7d8594" stroke-width="1.2" stroke-linecap="round" opacity=".45"/><path d="M52-12a10 10 0 0 1 20 0" fill="none" stroke="#7d8594" stroke-width="2.4" stroke-linecap="round" opacity=".6"/></g><g transform="translate(122 -26) rotate(-24) scale(1.18)"><path d="M-10-4H100" stroke="#fff" stroke-width="2" stroke-linecap="round" opacity=".8"/></g><g opacity=".18" filter="url(#near)" transform="translate(0 -6)"><rect x="-150" y="-54" width="300" height="30" rx="15" fill="#3a0510"/></g><g fill="url(#liner)"><rect x="-172" y="-48" width="344" height="96" rx="48"/></g><rect x="-172" y="-48" width="344" height="88" rx="44" fill="url(#scale)"/><rect x="-160" y="-43" width="320" height="38" rx="19" fill="url(#sheen)"/><ellipse cx="-104" cy="-30" rx="46" ry="7" fill="#fff" opacity=".45"/><rect x="-171" y="-47" width="342" height="86" rx="43" fill="none" stroke="#fff" stroke-opacity=".28" stroke-width="2"/><circle cx="-126" cy="-4" r="7" fill="url(#pin)"/><circle cx="-126" cy="-4" r="7" fill="none" stroke="#5a0a1a" stroke-opacity=".35" stroke-width="1.2"/><circle cx="122" cy="-4" r="7" fill="url(#pin)"/><circle cx="122" cy="-4" r="7" fill="none" stroke="#5a0a1a" stroke-opacity=".35" stroke-width="1.2"/></g></g></svg>
